<svg width="570" height="570" viewBox="0 0 570 570" fill="none" xmlns="http://www.w3.org/2000/svg">
<path d="M410.209 69.5388C386.328 76.0368 385.984 93.1938 359.974 96.0438C343.231 97.8763 319.824 112.537 319.906 137.503C370.249 104.403 350.729 151.08 422.506 118.26C444.805 113.759 449.388 141.915 495.9 146.167C500.745 149.971 498.926 147.877 504.119 162.078C539.801 149.886 519.697 101.516 508.109 99.0163C502.278 97.7367 496.641 108.039 478.731 96.4057C456.832 82.1215 430.592 63.9898 410.209 69.5388Z" fill="#3D9CFB"/>
<path d="M499.485 253.175C465.997 243.901 458.998 294.052 492.904 295.412C518.95 293.22 523.197 259.787 499.485 253.175ZM500.596 285.722C487.341 294.574 469.05 277.029 480.74 264.313C495.07 248.538 520.98 272.116 500.596 285.722Z" fill="#3D9CFB"/>
<path d="M526.282 298.659C502.208 313.599 526.116 359.584 551.496 339.699C552.235 339.143 552.728 338.32 552.87 337.406C553.013 336.491 552.793 335.558 552.258 334.803C551.723 334.048 550.915 333.531 550.006 333.361C549.096 333.192 548.156 333.384 547.386 333.897C527.49 348.076 515.437 313.471 530.086 304.656C537.861 299.976 543.305 300.575 548.164 307.184C565.27 313.1 544.804 283.571 526.282 298.659Z" fill="#3D9CFB"/>
<path d="M489.598 368.887C513.618 356.447 489.932 321.403 465.331 332.692C435.118 347.145 461.748 385.577 489.598 368.887ZM467.967 339.313C482.545 332.37 502.985 351.422 486.6 362.446C468.189 374.413 446.392 351.086 467.97 339.313H467.967Z" fill="#3D9CFB"/>
<path d="M55.2912 137.652C46.3479 159.563 54.6215 263.195 67.0902 275.413C83.9451 291.963 184.664 189.884 193.605 167.475C202.545 145.065 192.995 67.927 187.551 55.7091C179.591 37.9023 64.2431 115.75 55.2912 137.652ZM77.8062 184.027C72.7247 172.836 74.6969 157.314 75.891 154.12C77.8347 148.873 89.192 141.54 100.355 140.291C107.686 139.456 107.879 165.2 105.964 172.057C104.562 177.062 81.2661 191.614 77.8205 184.033L77.8062 184.027ZM115.891 226.324C115.746 228.471 115.173 230.568 114.205 232.489C113.236 234.411 111.893 236.119 110.253 237.513C101.926 244.638 94.2935 249.455 90.5685 248.207C87.1485 247.067 81.4314 236.071 83.4578 218.743C83.682 216.71 84.3504 214.75 85.4157 213.003C86.4809 211.256 87.917 209.765 89.6223 208.634C99.452 202.165 105.146 199.306 108.256 199.306C112.838 199.278 116.974 210.467 115.891 226.324ZM141.717 143.389C135.496 134.395 135.636 116.599 138.497 111.928C141.524 106.986 151.909 96.1021 163.152 94.851C170.485 94.0188 170.679 119.76 168.764 126.617C167.348 131.605 146.437 150.209 141.717 143.378V143.389ZM171.178 185.726C163.403 194.168 155.435 196.721 152.964 196.054C150.575 195.416 146.548 185.809 146.161 170.926C146.301 169.125 146.803 167.371 147.635 165.768C148.467 164.165 149.614 162.746 151.006 161.595C155.426 157.49 160.265 153.86 165.444 150.765C171.888 147.545 175.134 154.755 176.747 170.342C177.066 173.162 176.73 176.017 175.764 178.686C174.798 181.355 173.228 183.764 171.178 185.726Z" fill="#3D9CFB"/>
<path d="M360.39 303.133C380.44 304.558 394.465 275.807 372.36 265.729C344.202 252.537 327.869 300.839 360.39 303.133ZM354.226 273.974C369 263.062 385.55 282.499 371.221 292.135C356.144 304.438 341.144 285.055 354.226 273.974Z" fill="#3D9CFB"/>
<path d="M310.577 331.818C315.242 333.374 315.465 327.013 318.186 324.932C332.721 313.532 355.202 339.815 337.706 349.727C336.081 350.82 334.316 351.688 332.459 352.309C331.591 352.625 330.879 353.266 330.476 354.097C330.072 354.927 330.007 355.883 330.296 356.76C330.585 357.638 331.204 358.369 332.022 358.798C332.84 359.227 333.793 359.32 334.679 359.058C358.394 352.309 353.618 325.348 332.736 316.183C322.741 311.788 302.357 322.293 310.577 331.818Z" fill="#3D9CFB"/>
<path d="M359.172 219.734C376.36 207.795 368.668 198.826 353.312 208.049C341.844 214.889 347.786 227.657 359.172 219.734Z" fill="#3D9CFB"/>
<path d="M443.478 175.273C428.233 184.658 432.648 195.599 451.173 185.852C463.411 179.397 454.835 168.234 443.478 175.273Z" fill="#3D9CFB"/>
<path d="M521.005 218.022C515.562 195.088 498.319 252.707 529.974 252.262C533.807 251.903 546.789 250.903 544.746 243.903C544.535 243.487 544.244 243.117 543.889 242.814C543.535 242.511 543.123 242.282 542.679 242.14C542.235 241.998 541.766 241.945 541.302 241.986C540.837 242.026 540.385 242.159 539.972 242.376C523.81 252.647 512.176 233.697 521.005 218.022Z" fill="#3D9CFB"/>
<path d="M190.53 106.671C188.142 102.146 184.34 105.281 180.672 108.78C177.004 112.28 175.787 116.806 179.868 117.39C182.006 117.527 183.422 115.723 185.144 114.281C187.866 111.975 192.614 110.613 190.53 106.671Z" fill="#001434"/>
<path d="M190.096 96.2566C190.512 96.0575 190.883 95.7742 191.184 95.4247C191.485 95.0752 191.711 94.6669 191.846 94.2258C191.982 93.7847 192.024 93.3203 191.971 92.8619C191.918 92.4035 191.771 91.9611 191.538 91.5626C188.375 86.2587 183.558 92.5088 180.46 94.3385C177.017 96.3335 171.656 101.116 175.045 103.866C177.453 105.838 184.453 99.0068 190.096 96.2566Z" fill="#001434"/>
<path d="M187.895 158.014C184.312 160.959 179.898 164.401 182.896 168.733C184.979 171.76 189.476 165.65 192.281 163.623C196.031 160.93 191.506 155.127 187.895 158.014Z" fill="#001434"/>
<path d="M83.5949 279.64C78.2626 279.751 79.1518 285.34 84.4841 284.886C112.668 282.666 200.61 194.938 209.385 172.924C218.993 148.793 208.619 70.3754 203.278 58.4225C201.442 54.2558 195.751 55.3388 197.222 59.7535C202.446 75.4997 211.135 149.392 202.805 170.302C194.169 191.945 107.444 279.084 83.5949 279.64Z" fill="#001434"/>
<path d="M332.236 526.419C334.123 523.199 333.43 521.614 331.709 520.719C330.724 520.414 329.663 520.469 328.715 520.876C327.768 521.283 326.997 522.015 326.542 522.939C321.6 532.658 318.949 538.022 318.656 538.899C318.494 539.429 318.458 539.988 318.55 540.533C318.642 541.079 318.86 541.595 319.186 542.042C319.511 542.489 319.937 542.854 320.428 543.109C320.919 543.363 321.463 543.5 322.016 543.508C325.185 543.553 327.488 534.639 332.236 526.419Z" fill="#001434"/>
<path d="M356.171 538.917C362.56 538.389 379.86 491.764 381.915 485.907C399.741 486.85 434.896 487.489 454.168 486.129C455.556 486.961 476.161 538.749 479.818 538.917C483.474 539.085 484.76 537.748 483.064 533.918L461.689 485.573C468.628 485.053 475.523 484.05 482.323 482.572C483.987 484.185 497.234 514.894 500.426 515.421C503.618 515.949 505.371 513.951 503.621 510.343C501.871 506.735 489.234 480.517 489.234 480.517C521.226 463.58 531.699 396.046 531.748 395.302C532.415 390.802 525.307 391.221 524.668 395.83C515.394 439.01 505.231 463.945 487.459 472.971C468.133 482.8 427.894 479.996 379.968 478.748C374.636 478.608 363.945 477.109 363.583 481.313C363.224 485.619 366.832 484.562 374.331 485.533L352.919 533.935C352.678 534.475 352.576 535.068 352.623 535.658C352.67 536.248 352.864 536.816 353.187 537.312C353.511 537.807 353.953 538.214 354.475 538.494C354.996 538.775 355.579 538.92 356.171 538.917Z" fill="#001434"/>
<path d="M244.318 336.509C248.955 329.818 259.868 320.55 254.37 315.462C253.995 315.175 253.564 314.969 253.105 314.858C252.646 314.746 252.168 314.732 251.703 314.816C251.238 314.899 250.796 315.079 250.404 315.344C250.012 315.608 249.68 315.951 249.429 316.351C223.938 352.615 182.422 421.482 154.35 434.644C133.328 440.309 49.9399 424.398 43.4847 423.814C40.0647 423.509 37.4854 428.285 45.1491 430.785C66.6694 437.756 133.314 444.864 152.751 442.113C154.619 450.249 155.136 458.636 154.281 466.94C142.254 468.912 112.6 467.467 76.0545 461.884C71.4945 461.137 72.8625 467.8 77.4453 468.41C96.1071 471.434 114.913 473.492 133.787 474.575C133.898 490.737 133.758 534.889 133.758 535.388C133.924 542.413 140.866 535.553 140.866 533.584C140.866 533.114 141.006 491.182 140.895 474.743C147.734 475.205 154.588 474.112 160.945 471.548C183.021 461.357 211.62 423.702 235.503 384.053C241.582 374.001 235.863 370.641 233.836 374.224C211.732 413.155 181.111 451.459 161.731 464.056C162.145 456.065 161.455 448.056 159.679 440.255C182.924 428.174 206.944 390.631 244.318 336.509Z" fill="#001434"/>
<path d="M410.209 127.356C414.484 127.693 415.986 120.249 427.287 122.138C428.203 122.35 429.166 122.192 429.967 121.697C430.767 121.203 431.34 120.413 431.562 119.499C430.481 105.893 394.44 126.108 410.209 127.356Z" fill="#001434"/>
<path d="M187.089 142.498C183.384 145.499 174.732 152.08 180.454 155.218C184.202 157.273 188.534 150.775 193.254 147.443C196.976 144.713 191.948 138.508 187.089 142.498Z" fill="#001434"/>
<path d="M408.767 152.684C408.319 165.372 414.624 182.144 427.121 176.59C438.199 169.787 444.836 166.483 454.888 164.87C456.331 164.597 457.66 163.903 458.708 162.876C459.755 161.848 460.475 160.533 460.777 159.096C466.26 122.665 412.965 111.641 408.767 152.684ZM423.65 137.354C426.719 146.505 430.74 155.309 435.645 163.622C431.119 165.047 426.73 170.12 421.789 170.462C414.675 164.651 412.264 145.741 423.65 137.368V137.354Z" fill="#001434"/>
<path d="M423.346 186.698C421.969 186.527 420.57 186.695 419.273 187.189C417.976 187.683 416.819 188.487 415.905 189.531C409.489 195.388 402.019 197.36 391.717 200.076C377.11 202.048 379.527 217.156 390.468 220.072C395.464 241.162 430.286 225.874 433.147 210.766C435.535 202.348 433.563 189.087 423.346 186.698ZM410.042 222.796C405.24 224.159 398.602 224.575 397.502 219.798C401.526 218.131 398.528 212.274 394.723 213.329C390.029 214.634 383.506 209.162 391.588 207.469C402.863 204.887 412.445 201.581 420.718 195.111C421.215 194.723 421.84 194.536 422.469 194.589C423.097 194.642 423.682 194.93 424.107 195.396C432.916 205.497 421.291 219.604 410.042 222.796Z" fill="#001434"/>
<path d="M159.96 180.146C158.404 181.061 156.682 175.84 155.24 173.343C154.755 172.55 153.978 171.979 153.077 171.752C152.176 171.525 151.221 171.66 150.418 172.128C149.615 172.596 149.028 173.36 148.781 174.257C148.535 175.153 148.65 176.11 149.101 176.923C155.488 187.838 161.182 189.463 162.958 188.782C168.513 186.587 168.678 169.259 171.539 159.623C172.109 157.737 169.122 155.682 167.153 155.682C161.541 155.653 161.487 179.2 159.96 180.146Z" fill="#001434"/>
<path d="M87.455 226.546C95.2041 239.457 102.341 241.956 104.005 232.434C108.089 209.412 111.726 205.858 107.14 205.023C99.9494 204.276 100.42 226.213 98.2821 229.767C96.5375 227.629 94.9678 225.354 93.5882 222.964C93.0948 222.188 92.3201 221.634 91.4266 221.417C90.5332 221.2 89.5906 221.338 88.7968 221.802C88.003 222.266 87.4197 223.019 87.1695 223.904C86.9193 224.788 87.0216 225.735 87.455 226.546Z" fill="#001434"/>
<path d="M33.0286 300.3C35.9441 308.074 38.3609 309.767 42.1087 311.7C48.5497 315.034 70.7939 320.503 81.5413 313.894C121.416 296.224 213.052 206.098 222.901 181.412C233.592 154.505 223.679 54.3702 208.683 38.2364C200.021 28.991 176.478 23.7014 162.895 27.9365C138.385 35.5716 28.6054 96.1056 17.3593 131.873C8.815 148.212 19.1177 263.23 33.0286 300.3ZM24.1452 134.022C28.9902 117.267 82.0001 76.2896 126.805 51.7425C164.291 31.2225 174.899 29.6949 187.174 35.2781C179.952 38.0825 168.401 41.6079 170.208 46.0796C170.422 46.5007 170.721 46.8732 171.086 47.1738C171.451 47.4743 171.874 47.6967 172.328 47.8268C172.783 47.957 173.259 47.9923 173.728 47.9305C174.197 47.8687 174.647 47.7111 175.053 47.4675C183.825 42.5798 199.209 38.4701 203.516 43.107C215.4 55.9662 226.7 152.709 216.315 178.784C208.942 201.721 102.979 302.098 75.8755 308.63C68.266 309.907 64.2133 299.51 61.882 292.331C60.2432 287.275 60.1321 284.693 57.3534 284.972C53.0499 285.388 55.8542 302.38 63.3526 309.685C57.0648 309.127 50.8963 307.629 45.0527 305.241C29.392 298.134 16.3333 160.963 24.1452 134.022Z" fill="#001434"/>
<path d="M125.332 187.613C122.915 189.144 114.975 191.974 117.195 197.639C119.25 202.861 125.175 197.585 130.664 194.197C137.245 190.141 141.799 189.087 138.884 184.116C137.023 180.782 133.58 182.398 125.332 187.613Z" fill="#001434"/>
<path d="M555.135 288.025C550.441 229.825 528.143 216.467 504.291 203.095C507.923 190.679 508.626 177.59 506.343 164.857C538.973 149.333 543.943 73.5825 508.908 60.7803C506.929 60.8102 504.986 61.3215 503.249 62.2698C501.511 63.2182 500.03 64.5752 498.933 66.2238C490.13 80.3569 453.393 40.8987 430.79 42.4804C410.84 40.1776 381.083 40.5367 352.899 70.0542C350.676 72.3855 344.709 75.0531 337.82 78.1083C293.503 92.9283 256.376 142.002 304.971 184.656C305.676 187.377 306.576 190.044 307.664 192.636C302.598 193.019 297.573 193.827 292.642 195.052C284.534 176.003 259.682 185.445 257.764 204.606C216.61 221.21 224.553 304.926 273.202 301.628C316.494 304.267 328.546 220.46 288.726 214.267C287.818 214.124 286.891 214.337 286.137 214.863C285.383 215.388 284.862 216.185 284.683 217.086C284.504 217.987 284.68 218.922 285.175 219.696C285.67 220.47 286.445 221.023 287.338 221.238C296.458 222.321 306.858 232.678 305.578 248.478C299.548 247.971 293.568 246.977 287.697 245.509C286.798 245.291 285.849 245.433 285.052 245.904C284.256 246.376 283.674 247.139 283.432 248.032C283.19 248.925 283.305 249.878 283.754 250.687C284.203 251.496 284.95 252.099 285.836 252.366C292.24 253.99 298.77 255.068 305.356 255.589C304.94 261.078 303.82 266.491 302.024 271.695C295.071 270.831 288.229 269.23 281.615 266.918C280.746 266.666 279.814 266.755 279.008 267.167C278.203 267.579 277.585 268.283 277.28 269.135C276.976 269.987 277.007 270.923 277.369 271.753C277.731 272.582 278.395 273.242 279.227 273.598C285.672 275.832 292.309 277.468 299.054 278.486C292.722 290.741 281.051 296.914 266.091 293.842C224.883 285.375 233.316 219.616 261.953 210.622C262.602 210.425 263.18 210.045 263.619 209.528C264.057 209.011 264.338 208.379 264.427 207.706C265.202 201.904 269.035 192.376 275.949 191.658C282.587 191.088 284.391 194.685 286.056 198.264C286.667 199.584 287.676 200.679 288.942 201.394C290.208 202.11 291.666 202.411 293.112 202.254C299.08 201.562 305.302 199.088 310.466 199.59C321.866 227.748 327.321 238.826 339.402 247.019C312.241 278.147 302.067 322.829 311.187 343.181C261.027 363.952 266.442 391.386 245.044 433.429C225.579 441.563 212.055 440.925 210.36 459.974C210.143 462.436 210.463 464.916 211.3 467.242C212.137 469.568 213.469 471.684 215.205 473.443C221.09 478.274 304.923 512.987 331.693 512.987C342.688 513.013 344.409 504.904 352.498 488.825C356.941 479.246 362.438 467.307 367.129 464.885C428.527 455.765 494.727 483.016 501.92 390.964C548.72 375.97 558.55 344.674 555.135 288.025ZM303.301 173.897C268.397 133.911 305.41 96.3397 340.704 84.5664C348.593 81.0381 354.812 78.2622 358.007 74.9305C383.719 47.9952 409.962 47.1886 429.926 49.4943C455.944 48.5224 487.81 92.5977 504.622 70.3762C505.072 69.6603 505.683 69.0593 506.407 68.6209C507.13 68.1826 507.946 67.919 508.789 67.8511C533.809 83.8995 530.642 141.521 504.799 157.569C494.772 115.249 470.664 139.577 447.955 109.404C434.646 91.7113 415.75 95.5332 397.225 106.987C360.597 129.616 363.359 94.2649 337.219 115.318C325.696 124.578 301.884 144.989 303.301 173.897ZM316.103 194.585C300.525 164.153 319.298 138.577 341.816 120.77C361.31 104.471 360.882 136.704 400.463 113.329C419.022 102.367 431.953 99.4177 443.005 114.469C453.641 124.994 462.832 134.102 484.33 136.741C487.801 137.157 493.299 143.405 497.104 156.096C528.371 250.952 377.144 263.92 350.765 245.398C334.791 237.403 330.601 230.518 316.103 194.585ZM334.431 505.648C318.075 509.815 223.965 474.603 219.745 467.966C210.388 453.222 228.215 447.198 245.489 440.782C253.707 448.742 262.618 455.953 272.116 462.331C272.921 467.627 271.966 473.04 269.397 477.741C269.068 478.279 268.887 478.895 268.872 479.526C268.858 480.157 269.011 480.781 269.315 481.334C269.62 481.887 270.065 482.349 270.606 482.674C271.147 482.999 271.764 483.175 272.396 483.185C278.56 481.657 278.922 471.326 279.421 467.162C283.126 469.522 287.116 471.91 291.416 474.327C292.582 478.214 290.222 484.239 289.196 486.183C288.805 487.009 288.748 487.954 289.036 488.821C289.323 489.689 289.934 490.412 290.741 490.841C291.548 491.27 292.49 491.371 293.369 491.124C294.249 490.877 295 490.301 295.466 489.514C297.272 486.026 298.41 482.231 298.824 478.325C312.441 485.388 326.603 491.349 341.172 496.152C338.624 500.983 336.067 505.232 334.431 505.648ZM457.916 451.473C434.37 460.054 384.956 450.834 363.866 458.598C356.399 462.152 349.819 477.784 344.292 489.663C291.528 472.466 260.009 444.883 251.457 436.698C271.811 397.824 266.091 368.888 315.103 349.203C323.738 357.784 343.677 367.64 369.78 372.362C390.633 401.575 460.721 399.879 494.656 392.8C493.684 405.739 488.24 442.475 457.916 451.473ZM384.72 327.82C379.038 327.697 373.391 326.885 367.905 325.403C373.847 300.967 402.891 312.239 403.949 302.631C403.866 302.078 402.364 289.276 415.027 286.748C425.572 284.833 430.08 302.494 430.217 302.939C441.13 338.538 436.299 375.859 425.107 388.798C395.062 385.717 377.096 376.024 370.652 359.392C374.625 359.252 386.042 363.835 386.592 357.004C386.605 356.533 386.523 356.065 386.349 355.628C386.175 355.191 385.914 354.794 385.581 354.461C385.248 354.128 384.851 353.867 384.414 353.693C383.977 353.519 383.509 353.436 383.038 353.45C378.152 353.332 373.286 352.765 368.503 351.757C367.062 345.42 366.465 338.921 366.728 332.428C370.148 332.371 387.359 339.342 388.248 331.345C388.258 330.879 388.174 330.416 388 329.983C387.826 329.551 387.567 329.158 387.237 328.829C386.907 328.499 386.514 328.24 386.082 328.066C385.649 327.893 385.186 327.809 384.72 327.82ZM530.925 366.417C516.652 384.688 474.084 392.409 433.455 389.465C444.396 371.997 446.673 336.9 438.425 305.826C448.588 306.576 471.303 308.243 481.107 308.676C481.575 308.707 482.045 308.642 482.488 308.487C482.932 308.332 483.339 308.089 483.686 307.773C484.034 307.457 484.314 307.075 484.51 306.648C484.706 306.221 484.815 305.76 484.829 305.29C484.8 299.932 473.916 302.486 466.748 300.708C465.169 293.639 464.027 286.479 463.328 279.27C463.211 278.351 462.74 277.514 462.016 276.937C461.292 276.359 460.371 276.087 459.449 276.178C458.528 276.268 457.677 276.714 457.079 277.422C456.481 278.129 456.182 279.041 456.246 279.965C456.303 280.535 457.469 291.989 459.304 300.18C449.899 299.513 440.557 298.818 436.31 298.513C430.422 273.55 399.406 272.94 396.767 299.707C358.696 300.152 353.256 334.862 364.918 364.16C344.535 359.66 327.569 351.301 320.543 344.637C308.243 332.952 316.043 283.853 345.623 250.724C388.832 269.885 468.416 261.389 501.684 209.767C524.37 222.541 543.695 234.847 548.027 288.601C551.051 325.93 545.611 350.671 530.919 366.417H530.925Z" fill="#001434"/>
<path d="M65.9638 136.16C63.8178 138.783 62.6065 142.046 62.521 145.434C60.241 164.095 60.7141 226.089 66.0465 248.843C68.0728 257.507 75.0724 255.732 73.2114 247.846C69.1017 230.378 64.8238 158.541 71.1024 143.131C76.7368 129.274 134.857 85.8459 164.126 71.7099C170.983 68.4039 170.65 62.7666 163.377 66.0441C123.388 84.1216 78.3756 121.554 65.9638 136.16Z" fill="#001434"/>
<path d="M91.7059 179.175C93.6496 178.978 95.4109 178.534 96.8159 174.33C99.5633 166.165 104.896 144.59 99.2299 145.423C96.3998 145.842 95.2399 146.423 94.5929 150.199C93.3988 157.142 92.0935 170.027 90.4006 170.166C88.3457 170.332 85.5556 159.809 81.7366 162.28C80.0978 163.335 78.5702 165.25 79.5706 166.943C85.9004 177.895 89.8163 179.175 91.7059 179.175Z" fill="#001434"/>
<path d="M46.0241 219.078C39.7199 164.54 43.2197 142.27 46.748 133.746C52.106 120.804 88.3723 94.5071 129.19 67.9879C135.189 64.1005 133.579 57.1864 123.137 63.4906C97.059 79.4566 72.4106 97.6475 49.4669 117.86C35.3338 130.551 31.4464 150.795 39.7769 217.855C40.9141 226.91 46.5514 223.658 46.0241 219.078Z" fill="#001434"/>
<path d="M385.106 190.505C392.189 191.531 384.077 171.538 402.352 179.98C402.747 180.242 403.193 180.417 403.661 180.494C404.129 180.572 404.608 180.549 405.067 180.429C405.526 180.308 405.954 180.092 406.323 179.795C406.693 179.498 406.995 179.126 407.211 178.703C410.514 170.153 393.16 169.096 387.857 173.066C382.273 177.27 377.081 189.337 385.106 190.505Z" fill="#001434"/>
<path d="M330.485 157.709C335.455 157.042 335.184 149.367 347.063 149.729C347.533 149.783 348.008 149.738 348.459 149.598C348.91 149.457 349.327 149.224 349.682 148.913C350.038 148.602 350.325 148.22 350.524 147.791C350.723 147.363 350.831 146.898 350.839 146.425C349.563 133.093 316.212 155.431 330.485 157.709Z" fill="#001434"/>
<path d="M374.86 190.558C380.329 154.126 327.071 143.103 322.876 184.145C322.431 196.834 328.735 213.606 341.232 208.054C352.31 201.251 358.948 197.945 369 196.335C370.441 196.065 371.768 195.37 372.812 194.341C373.856 193.312 374.569 191.995 374.86 190.558ZM337.51 202.001C327.236 198.946 326.153 173.424 341.036 166.843C343.659 176.296 347.05 185.519 351.173 194.42C346.48 196.688 341.919 199.219 337.51 202.001Z" fill="#001434"/>
<path d="M137.216 362.391C135.552 361.781 131.747 360.336 129.692 359.726C131.801 357.731 136.384 353.171 132.522 352.031C128.082 350.697 126.888 353.003 121.832 357.586C119.195 356.89 117.252 356.446 117.058 356.391C112.031 355.308 106.798 361.083 116.251 363.499C113.364 366.25 106.895 373.246 114.558 373.107C119.002 373.024 120.863 368.025 124.055 365.526C127.76 366.381 131.023 367.831 134.164 368.47C137.994 368.612 140.91 363.613 137.216 362.391Z" fill="#001434"/>
<path d="M162.348 329.569C164.432 327.041 154.685 327.004 150.948 325.459C153.2 322.985 160.003 317.015 155.793 315.849C154.659 315.602 153.485 315.606 152.353 315.86C151.22 316.115 150.157 316.614 149.238 317.322C146.351 320.21 145.074 321.181 142.159 323.738C138.437 323.487 132.132 321.985 129.049 325.291C127.054 327.457 132.469 330.623 134.797 330.261C131.907 332.926 121.439 343.562 130.491 342.953C136.476 342.536 140.016 334.066 144.236 331.344C149.27 331.595 157.435 335.565 162.348 329.569Z" fill="#001434"/>
<path d="M76.4881 377.622C75.562 377.603 74.6654 377.948 73.9898 378.581C73.3143 379.215 72.9136 380.088 72.8733 381.013C72.8331 381.938 73.1566 382.843 73.7746 383.533C74.3926 384.223 75.2561 384.643 76.1803 384.705C89.9002 385.149 124.277 391.813 132.385 396.7C133.225 397.125 134.2 397.2 135.095 396.909C135.99 396.617 136.733 395.983 137.162 395.144C139.16 383.798 88.3982 379.047 76.4881 377.622Z" fill="#001434"/>
<path d="M171.206 315.238C174.401 314.765 191.156 299.104 185.145 296.428C179.676 293.954 175.093 302.453 167.76 310.256C165.626 312.545 168.151 315.683 171.206 315.238Z" fill="#001434"/>
<path d="M181.425 281.917C160.766 281.945 155.128 285.277 69.7054 367.36C61.0129 375.747 57.9007 383.471 60.9018 390.16C69.4746 409.255 118.187 409.54 132.212 409.349C160.603 408.947 177.812 386.717 209.076 347.316C217.794 334.234 245.231 310.02 238.289 295.446C233.769 285.887 217.273 281.971 181.425 281.917ZM220.938 321.127C193.948 354.033 160.013 405.042 131.995 402.238C111.948 402.902 72.4614 399.211 67.4625 387.418C65.4903 382.724 70.2954 376.728 74.6559 372.507C161.404 289.002 164.818 288.979 181.425 289.033C225.826 290.273 246.348 291.108 220.938 321.127Z" fill="#001434"/>
<path d="M134.997 201.207C131.274 204.012 121.832 207.956 123.944 214.537C125.415 219.174 134.247 211.314 138.385 207.261C141.495 203.858 139.411 197.833 134.997 201.207Z" fill="#001434"/>
<path d="M209.082 310.079C210.944 307.608 217.165 301.554 211.97 301.024C205.833 300.386 203.639 306.801 200.57 309.272C196.349 309.329 190.711 306.744 187.628 311.772C185.824 314.741 192.404 315.964 195.155 315.936C186.351 326.823 178.964 336.319 169.829 346.926C164.386 346.148 156.528 345.259 151.974 344.538C151.051 344.443 150.125 344.69 149.373 345.233C148.62 345.776 148.094 346.576 147.893 347.482C146.975 350.455 154.733 351.398 164.192 353.342C162.722 357.332 143.92 372.058 151.863 372.585C159.609 373.112 157.999 370.391 172.634 354.507C175.764 355.187 178.991 355.291 182.159 354.812C186.129 354.148 189.99 352.119 178.077 348.175C187.075 337.57 194.545 327.877 203.65 316.714C208.495 316.215 218.009 317.631 220.18 313.966C222.412 310.159 212.833 310.962 209.082 310.079Z" fill="#001434"/>
<path d="M159.293 129.83C163.237 103.171 167.182 101.199 161.71 100.923C154.516 100.561 154.989 122.081 152.852 125.664C151.107 123.525 149.538 121.251 148.158 118.861C147.67 118.074 146.894 117.509 145.995 117.286C145.096 117.063 144.146 117.199 143.347 117.666C142.547 118.133 141.961 118.893 141.714 119.785C141.466 120.678 141.577 121.631 142.022 122.443C149.768 135.356 157.851 139.381 159.293 129.83Z" fill="#001434"/>
<path d="M221.411 241.392C226.105 241.694 226.826 236.088 222.189 234.552C212.47 231.328 187.504 233.189 180.813 248.99C177.646 256.46 178.094 264.069 182.702 267.871C184.147 269.866 218.541 278.311 218.829 270.482C218.879 269.541 218.558 268.619 217.935 267.912C217.312 267.206 216.437 266.773 215.497 266.705C203.638 265.956 190.893 264.012 189.118 261.875C181.397 252.592 191.506 239.514 221.411 241.392Z" fill="#001434"/>
<path d="M119.612 130.244C114.671 133.548 107.144 136.187 110.005 140.379C112.641 144.238 119.333 137.27 128.276 132.715C132.386 130.635 128.943 124.054 119.612 130.244Z" fill="#001434"/>
<path d="M124.668 144.35C120.917 146.915 112.225 148.711 114.197 155.18C115.14 158.289 119.167 156.605 121.778 154.681C123.833 153.211 126.275 151.683 127.914 150.654C136.244 145.405 130.664 140.269 124.668 144.35Z" fill="#001434"/>
</svg>
