<svg width="570" height="476" viewBox="0 0 570 476" fill="none" xmlns="http://www.w3.org/2000/svg">
<path d="M35.6842 182.503C54.6758 190.694 63.1365 209.115 59.3562 225.466C43.2748 276.621 134.363 314.244 164.005 307.013C194.518 299.603 193.527 299.993 206.009 296.212C219.48 292.102 215.969 273.11 229.41 262.31C226.77 248.268 220.92 228.677 220.92 228.677C220.92 228.677 212.459 242.118 199.918 242.118C187.377 242.118 183.267 230.447 174.206 228.107C165.145 225.766 159.865 228.977 151.974 226.937C144.083 224.896 141.173 218.176 130.042 216.106C117.771 213.765 99.0795 221.656 85.3384 215.536C56.686 197.114 61.9064 170.532 74.8075 141.009C81.498 125.648 105.2 123.008 120.711 124.628C140.273 126.968 154.014 138.669 197.278 149.77C219.78 155.621 222.42 164.951 223.59 186.583C239.671 187.183 254.283 162.581 232.351 148.3C237.901 125.498 220.68 116.137 210.719 116.437C206.639 99.4859 193.768 86.6148 168.055 95.9756C157.224 80.9743 119.811 78.1541 109.31 104.466C94.9692 91.5952 68.957 96.8456 67.3069 119.078C48.0152 111.757 35.7442 133.689 46.5451 148.9C28.3636 146.26 23.1131 170.802 35.6842 182.503Z" fill="#3D9CFB"/>
<path d="M270.033 73.0245C267.993 75.0646 261.843 73.5945 251.612 73.2945C241.381 72.9945 237.601 81.4852 234.66 81.1851C231.72 80.8851 231.15 80.9151 230.58 81.7852C229.71 83.5253 231.45 85.8655 233.19 86.1656C238.771 86.7356 240.811 83.8254 243.721 81.7852C255.422 73.5945 275.584 91.716 278.224 66.3039C278.524 62.4936 278.734 55.533 275.584 51.6627C272.434 47.7923 235.831 44.072 234.36 49.6225C234.341 50.0063 234.408 50.3896 234.557 50.7437C234.707 51.0979 234.934 51.4137 235.223 51.6676C235.511 51.9215 235.853 52.1069 236.223 52.2099C236.594 52.313 236.982 52.331 237.361 52.2627C252.842 51.6626 269.223 53.4328 271.264 55.473C274.174 58.2632 272.134 71.1343 270.033 73.0245Z" fill="#3D9CFB"/>
<path d="M355.753 219.347C387.855 223.937 384.975 220.907 384.975 185.144C384.975 172.573 373.574 171.703 360.703 169.932C331.901 165.912 333.701 166.602 332.051 197.415C331.781 200.925 337.901 201.795 338.501 193.904C339.101 186.014 339.371 183.074 339.671 178.423C344.364 184.424 349.371 190.172 354.672 195.645C346.182 200.925 346.782 202.665 347.352 204.435C347.922 206.206 349.692 205.605 358.153 200.025L372.194 215.026C367.514 214.456 364.303 214.756 356.983 213.856C351.942 213.196 349.602 218.447 355.753 219.347ZM342.581 173.143C354.582 174.313 363.913 176.143 375.584 178.123C370.604 182.804 364.183 187.484 358.633 191.864C352.966 185.902 347.609 179.653 342.581 173.143ZM362.473 196.245C367.724 192.134 373.874 187.484 378.824 183.074C378.974 183.344 379.053 183.649 379.053 183.959C379.053 184.268 378.974 184.573 378.824 184.844C378.524 194.205 379.124 203.535 377.954 212.596C373.574 207.646 367.724 201.795 362.473 196.245Z" fill="#3D9CFB"/>
<path d="M529.345 163.213C533.455 127.21 529.645 126.67 498.683 126.1C474.981 125.5 477.921 134.561 477.051 156.103C476.151 175.394 485.511 173.924 506.573 175.694C527.635 177.464 528.205 174.314 529.345 163.213ZM523.345 135.431C517.856 140.909 511.825 145.815 505.343 150.072C499.297 144.604 493.727 138.632 488.692 132.221C497.692 132.221 515.274 130.991 523.225 135.431H523.345ZM484.341 136.601C489.261 142.559 494.531 148.22 500.123 153.552C493.702 157.663 487.282 161.443 483.171 163.783C482.001 157.363 484.341 138.371 484.341 136.601ZM487.552 167.894C492.232 165.253 498.382 161.443 504.503 157.663L517.674 170.804C517.074 170.804 496.912 169.634 487.552 167.894ZM522.925 167.894C519.414 163.783 514.734 159.133 509.483 154.152C514.899 150.493 520.07 146.484 524.965 142.151C525.055 150.822 523.135 166.904 522.925 167.894Z" fill="#3D9CFB"/>
<path d="M384.974 115.869C375.313 115.869 370.633 117.609 369.973 126.1C369.313 134.591 366.163 151.812 371.143 157.062C374.953 161.173 374.653 159.703 398.325 162.343C422.868 164.953 424.638 164.953 424.338 135.161C424.428 120.159 431.238 115.869 384.974 115.869ZM413.627 122.89C408.346 126.97 402.796 130.78 397.245 134.561C391.995 129.61 386.714 124.93 382.634 121.419C382.634 121.419 402.496 122.289 413.627 122.89ZM376.484 124.03C380.594 127.03 386.144 132.22 392.265 137.771C386.602 141.366 381.144 145.272 375.914 149.472C375.614 148.602 375.914 131.95 376.484 124.03ZM379.124 154.032C384.104 149.952 390.225 146.142 396.375 142.031C401.326 146.682 408.046 153.132 412.457 157.212C410.386 157.032 388.485 156.492 379.124 154.032ZM417.707 154.032C413.897 150.522 406.306 143.501 401.326 138.551C407.329 134.72 413.091 130.521 418.577 125.98C418.931 135.339 418.64 144.712 417.707 154.032Z" fill="#3D9CFB"/>
<path d="M414.497 184.544C414.497 183.373 413.897 181.543 408.496 181.333C404.986 181.033 396.495 180.463 394.185 180.463C391.875 180.463 390.075 182.503 391.845 184.844C393.585 186.584 401.776 186.584 405.586 186.884C413.327 187.484 414.767 186.584 414.497 184.544Z" fill="#3D9CFB"/>
<path d="M396.046 219.616C410.087 221.386 414.468 221.656 412.127 218.446C409.127 214.666 400.726 213.496 395.446 213.496C390.166 213.496 389.355 218.746 396.046 219.616Z" fill="#3D9CFB"/>
<path d="M333.818 148.9C334.688 154.901 344.919 153.851 353.11 153.851C362.111 153.851 358.66 147.43 353.98 147.13C344.619 146.56 333.518 145.03 333.818 148.9Z" fill="#3D9CFB"/>
<path d="M362.472 238.639C418.006 245.93 427.337 244.189 432.618 234.829C439.098 223.308 443.719 74.1352 443.719 60.814C443.719 33.2717 442.278 35.5519 345.52 31.5916C323.588 30.7215 319.778 40.3523 319.208 52.3533C318.158 76.5954 312.758 143.771 312.758 194.985C312.758 200.236 318.038 200.536 318.338 191.475C318.638 182.414 320.648 89.4665 325.059 53.2234C326.229 42.6925 327.669 36.842 345.22 37.7421C431.688 41.3124 437.868 38.9422 437.868 61.1141C437.868 85.3561 435.828 123.669 434.658 146.471C433.488 169.273 433.188 226.548 426.167 232.969C418.576 239.689 388.184 236.209 358.961 232.098C351.641 231.018 354.851 237.739 362.472 238.639Z" fill="#3D9CFB"/>
<path d="M332.35 131.048C332.05 136.329 347.562 135.729 354.282 135.729C361.003 135.729 361.303 130.178 356.322 129.878C346.391 129.308 332.65 126.668 332.35 131.048Z" fill="#3D9CFB"/>
<path d="M257.222 245.358C255.482 251.778 247.891 289.761 257.822 286.851C283.534 278.36 314.527 264.349 325.928 294.172C329.708 276.62 332.648 240.167 331.478 230.146C329.708 213.765 322.118 213.765 291.125 217.575C264.843 220.786 261.332 229.846 257.222 245.358ZM304.866 230.716C306.636 232.487 308.676 254.988 301.656 259.369C298.656 261.139 272.733 268.37 270.093 266.389C266.583 263.749 270.393 235.997 273.603 233.057C276.814 230.116 302.256 228.106 304.866 230.716Z" fill="#3D9CFB"/>
<path d="M518.844 118.028C527.305 118.028 528.205 108.098 527.605 76.0249C527.305 66.6641 505.403 66.6641 483.171 67.5341C475.581 67.8342 473.541 73.5346 473.241 85.5357C472.4 120.519 466.43 117.248 518.844 118.028ZM482.601 110.708C488.883 106.41 494.895 101.731 500.603 96.6966C505.389 102.218 510.562 107.392 516.084 112.178C513.954 112.628 491.092 112.868 482.601 110.588V110.708ZM520.015 108.098C514.656 103.469 509.642 98.4548 505.013 93.0963C510.564 88.1159 516.114 83.1655 521.095 78.7551C521.185 79.0251 520.285 103.927 520.015 107.978V108.098ZM487.552 73.8947C498.953 73.8947 507.143 74.1947 516.804 74.7647C511.824 79.1451 506.843 83.7655 500.993 88.8059C484.582 71.2845 484.221 73.7747 487.552 73.7747V73.8947ZM480.831 77.105C486.536 81.6936 491.817 86.7844 496.613 92.3162C491.167 97.2896 485.305 101.786 479.091 105.757C479.031 96.1386 479.61 86.5257 480.831 76.9849V77.105Z" fill="#3D9CFB"/>
<path d="M338.769 120.249C347.77 121.119 358.961 123.46 358.961 119.079C358.961 116.439 354.551 114.969 339.939 114.399C334.989 114.189 329.709 119.649 338.769 120.249Z" fill="#3D9CFB"/>
<path d="M469.161 196.244C467.691 207.945 463.011 230.717 476.752 232.487C492.833 234.527 505.644 237.647 510.655 234.527C515.005 231.827 514.735 226.636 516.205 215.835C518.545 197.414 521.456 190.693 505.974 188.833C476.752 185.713 471.051 184.243 469.161 196.244ZM476.452 226.246C480.832 223.036 486.683 219.526 491.453 216.016C495.833 220.996 500.214 225.976 503.724 230.627C499.464 230.717 480.352 227.206 476.452 226.336V226.246ZM511.825 203.744C510.655 212.505 510.655 219.826 508.614 227.747C504.67 222.393 500.37 217.312 495.743 212.535C501.294 207.885 508.014 202.604 511.525 199.964C512.095 201.173 512.203 202.55 511.825 203.834V203.744ZM486.383 192.344C493.673 193.664 499.554 193.214 508.014 195.554C504.504 198.194 497.784 203.744 492.233 208.425C487.643 203.496 483.44 198.22 479.662 192.644C481.843 191.975 484.164 191.902 486.383 192.434V192.344ZM475.282 196.154C478.492 200.834 482.872 206.085 487.553 211.635C482.872 215.145 477.922 218.086 473.542 221.296C473.488 212.913 474.069 204.539 475.282 196.244V196.154Z" fill="#3D9CFB"/>
<path d="M395.775 197.714C391.395 197.714 392.775 203.144 398.116 203.714C403.542 204.588 409.01 205.179 414.497 205.484C420.918 205.874 424.998 198.284 395.775 197.714Z" fill="#3D9CFB"/>
<path d="M263.373 130.478C267.453 131.348 268.353 139.838 275.074 140.708C279.754 141.278 280.324 135.728 280.624 134.258C280.924 132.788 280.894 131.048 286.625 131.948C292.355 132.848 293.075 126.367 285.454 125.497C273.183 124.327 276.124 134.498 274.053 133.688C271.983 132.878 271.443 126.667 268.503 124.927C265.563 123.187 250.681 122.587 248.341 119.377C246.001 116.166 246.781 108.246 247.771 103.865C248.005 102.721 248.624 101.692 249.525 100.949C250.426 100.207 251.554 99.7958 252.722 99.785C260.042 99.935 280.774 101.525 286.625 102.125C292.475 102.725 292.475 95.9747 284.284 94.8046C276.094 93.6345 249.811 91.2943 243.961 95.1046C239.581 98.1049 239.641 106.806 239.581 110.316C239.401 128.557 243.751 127.027 263.373 130.478Z" fill="#3D9CFB"/>
<path d="M270.964 168.462C272.279 168.211 273.641 168.424 274.817 169.064C275.993 169.704 276.911 170.731 277.414 171.972C278.854 175.482 284.135 173.142 281.795 167.592C280.324 164.081 277.684 161.741 270.964 162.341C251.162 163.691 256.172 196.034 275.944 188.353C282.365 185.713 281.795 178.423 275.944 181.903C264.933 188.533 259.263 169.632 270.964 168.462Z" fill="#3D9CFB"/>
<path d="M271.265 32.2509C228.301 29.9107 232.082 36.7813 237.932 37.2313C254.283 38.4914 291.937 37.2313 297.937 45.422C303.938 53.6127 298.807 95.1062 297.337 109.417C296.467 118.418 293.257 178.123 293.827 192.134C294.127 199.455 299.827 199.455 299.827 195.135C302.168 34.6811 324.759 35.4012 271.265 32.2509Z" fill="#3D9CFB"/>
<path d="M468.051 250.609C485.572 253.609 537.447 266.601 533.216 258.8C530.666 254.06 532.046 254.69 469.491 244.759C457.82 243.019 451.099 243.289 452.27 223.427C462.86 53.6427 458.27 51.0024 484.402 51.8425C500.784 52.4426 526.196 56.8229 536.727 56.2229C542.577 56.5229 546.087 52.7126 535.557 50.6724C516.865 47.1621 473.001 41.0416 462.2 50.6724C453.2 58.5631 454.58 93.366 452.54 122.288C450.499 151.211 448.159 182.804 446.119 223.427C444.889 246.529 450.439 247.699 468.051 250.609Z" fill="#3D9CFB"/>
<path d="M426.766 68.7943C425.505 56.5833 426.225 52.1429 375.041 51.2728C347.259 50.3728 342.878 50.3727 339.368 53.013C331.778 58.8635 332.648 86.3458 335.288 95.4065C339.668 106.507 408.344 107.078 420.345 105.637C427.636 104.767 427.066 82.8355 426.766 68.7943ZM416.235 60.6036C408.044 64.4139 391.093 70.2644 379.122 74.9448C368.021 69.0943 356.89 62.9438 347.559 56.9433C356.41 56.2232 407.324 57.4233 416.235 60.6036ZM341.228 59.4335C351.024 65.9993 361.181 72.0093 371.651 77.435C359.65 82.1154 347.649 86.7958 339.188 90.9062C338.708 87.6959 339.938 62.7638 341.108 59.4335H341.228ZM345.639 94.5065C354.639 90.4261 366.64 85.7457 378.641 81.3654C390.042 87.5159 405.824 95.4065 414.885 100.657C405.044 101.167 359.05 97.0267 345.519 94.5065H345.639ZM419.565 96.5766C412.274 91.8962 396.493 84.0056 385.662 78.5751C398.833 73.5947 413.444 68.3443 420.165 65.134C421.095 69.6944 420.045 93.6964 419.445 96.5766H419.565Z" fill="#3D9CFB"/>
<path d="M303.037 261.71C309.758 257.9 311.798 230.717 308.018 226.637C304.237 222.557 278.195 226.067 272.345 231.317C266.494 236.568 264.814 263.12 267.964 266.96C271.115 270.801 294.366 266.69 303.037 261.71ZM303.337 243.708C308.588 251.599 296.317 258.917 291.636 250.726C288.036 243.015 299.047 236.565 303.427 243.585L303.337 243.708ZM281.105 233.178C282.028 233.116 282.953 233.244 283.823 233.555C284.694 233.866 285.492 234.352 286.167 234.983C286.842 235.615 287.38 236.378 287.748 237.226C288.116 238.074 288.306 238.989 288.306 239.913C288.306 240.838 288.116 241.752 287.748 242.6C287.38 243.448 286.842 244.212 286.167 244.843C285.492 245.474 284.694 245.961 283.823 246.271C282.953 246.582 282.028 246.71 281.105 246.649C271.835 246.529 273.035 233.358 281.195 233.058L281.105 233.178ZM277.595 251.029C278.426 250.644 279.328 250.439 280.244 250.426C281.159 250.413 282.067 250.593 282.908 250.954C283.749 251.317 284.505 251.854 285.126 252.526C285.743 253.202 286.212 254 286.502 254.868C286.793 255.736 286.898 256.655 286.812 257.567C286.725 258.478 286.446 259.361 285.993 260.157C285.54 260.953 284.923 261.644 284.184 262.184C283.445 262.726 282.601 263.106 281.705 263.3C280.48 263.695 279.165 263.718 277.927 263.367C276.689 263.016 275.582 262.306 274.746 261.326C273.911 260.347 273.384 259.142 273.232 257.864C273.08 256.586 273.31 255.291 273.893 254.143C274.678 252.604 276.042 251.44 277.685 250.906L277.595 251.029Z" fill="#001434"/>
<path d="M118.402 137.77C113.722 138.37 111.081 143.771 115.762 144.491C125.617 145.644 135.1 148.942 143.544 154.152C143.972 154.424 144.457 154.594 144.961 154.651C145.465 154.707 145.975 154.648 146.452 154.477C146.93 154.306 147.362 154.029 147.716 153.666C148.07 153.302 148.336 152.863 148.495 152.381C148.795 144.491 129.503 136.6 118.402 137.77Z" fill="#001434"/>
<path d="M357.192 442.658C296.106 404.074 290.556 406.655 295.806 412.835C301.057 419.016 320.378 428.046 361.002 453.459C371.803 460.179 404.266 481.811 403.005 474.46C401.745 467.11 387.584 461.949 357.192 442.658Z" fill="#001434"/>
<path d="M394.337 340.648C335.292 352.049 321.821 423.365 380.865 426.875C397.247 427.745 412.728 418.984 423.259 411.664C461.542 385.352 455.692 328.647 394.337 340.648ZM422.389 344.428C435.53 349.409 413.898 364.02 409.518 359.639C406.278 356.399 414.498 341.488 422.389 344.428ZM355.153 406.683C333.822 379.231 378.255 345.028 409.518 344.428C387.316 371.43 420.919 372.481 431.75 353.219C468.743 382.501 385.486 445.207 355.153 406.683Z" fill="#001434"/>
<path d="M536.367 15.0299C481.432 9.74944 301.087 0.0286171 249.062 0.0286171C220.41 -0.571433 215.43 8.21931 213.389 30.7212C211.349 53.2231 210.389 84.7257 210.389 92.6764C210.389 100.627 221.79 108.158 222.66 97.0568C223.53 85.9558 227.911 40.052 228.511 31.5913C229.111 23.1306 229.681 14.9399 242.522 14.9399C342.34 14.9399 531.026 31.8613 531.326 31.8913C555.328 33.6314 554.128 36.5717 554.128 54.6932C554.128 113.738 550.018 200.235 546.508 260.751C544.407 294.443 537.987 283.733 422.597 260.151C407.956 257.15 368.203 249.65 356.232 247.009C347.741 245.269 350.681 263.091 358.572 265.011C377.863 269.991 453.86 286.943 519.325 300.384C540.657 304.764 559.679 301.554 562.589 275.812C564.629 256.82 569.909 81.4555 569.909 62.7939C570.27 26.7009 571.17 17.9401 536.367 15.0299Z" fill="#001434"/>
<path d="M93.5579 154.453C76.0064 160.873 71.9261 195.076 96.7682 195.646C108.439 195.946 121.31 204.647 133.011 201.647C145.282 198.646 151.703 178.545 145.012 167.744C137.092 154.723 106.399 149.472 93.5579 154.453ZM108.739 190.456C97.0682 187.245 83.027 189.886 87.4074 172.904C92.0878 154.903 112.25 159.463 125.691 162.973C119.395 171.699 113.73 180.863 108.739 190.396V190.456Z" fill="#001434"/>
<path d="M147.924 247.699C153.924 246.799 154.944 239.599 150.534 240.079C128.962 242.539 118.701 226.638 114.891 232.488C110.21 239.209 129.202 250.04 147.924 247.699Z" fill="#001434"/>
<path d="M318.038 459.308C307.508 452.588 270.034 429.306 264.244 425.406C260.164 422.765 258.994 426.876 261.904 429.786C270.694 438.787 279.155 440.887 296.407 452.888C304.971 459.117 313.998 464.683 323.409 469.539C329.139 471.879 331.18 467.799 318.038 459.308Z" fill="#001434"/>
<path d="M322.719 368.999C330.61 358.469 334.99 340.347 334.99 324.836C334.99 324.836 342.881 263.18 346.391 237.468C349.901 211.756 345.221 201.465 323.589 202.095C301.957 202.725 259.564 204.436 252.273 224.597C238.232 221.387 229.771 219.617 224.491 218.597C225.091 211.306 225.661 199.305 225.661 190.544C246.993 189.074 254.883 158.682 236.192 147.281C237.173 143.524 237.349 139.602 236.707 135.773C236.064 131.944 234.619 128.294 232.465 125.063C230.311 121.832 227.498 119.094 224.21 117.029C220.923 114.963 217.235 113.616 213.39 113.078C206.969 93.5162 192.388 84.1554 169.556 92.3461C158.425 68.074 120.442 61.9235 99.9802 79.475C84.1989 68.074 53.2062 78.6049 49.6959 99.3367C28.3641 91.746 9.07253 111.638 16.9632 133.27C-2.62846 139.09 -6.13875 171.253 11.1127 181.784C-3.49853 196.785 5.86226 232.338 24.2838 244.039C13.7529 249.589 6.28229 263.39 9.67258 266.841C11.0827 268.341 13.7529 267.111 14.623 265.371C18.3167 257.774 24.515 251.681 32.1745 248.119C34.9236 249.009 37.7599 249.603 40.6352 249.889C45.3156 274.731 76.6382 308.934 133.643 313.885C93.3196 336.987 70.6377 391.891 84.8289 431.405C69.3476 425.404 52.0962 413.553 39.8251 405.662C27.5541 397.772 23.1737 401.582 30.1943 407.733C44.8055 420.574 93.1996 455.377 136.883 452.436C166.886 450.396 183.927 445.416 245.882 418.534C288.216 400.562 313.058 381.54 322.719 368.999ZM257.823 230.988C262.774 210.526 309.848 209.656 324.459 209.656C347.831 209.656 340.06 224.657 331.48 298.793C315.458 242.749 244.832 296.363 246.723 283.312C249.183 263.51 253.173 251.359 257.823 231.018V230.988ZM247.593 242.389C246.423 247.069 245.552 251.389 244.952 254.09C240.452 253.871 235.96 254.671 231.811 256.43C230.896 249.986 229.431 243.632 227.431 237.438C231.031 238.338 237.932 240.079 247.593 242.419V242.389ZM43.8455 221.927C41.199 228.522 39.9131 235.584 40.0651 242.689C16.3931 241.219 1.06185 196.515 19.6034 184.814C41.8053 175.183 52.3362 205.306 43.8455 221.957V221.927ZM49.1259 253.04C42.9754 230.808 54.6764 225.257 54.0763 205.696C52.9062 185.804 37.4249 170.623 18.4333 177.913C1.48189 167.682 5.56223 148.391 19.9034 140.2C21.3763 139.324 22.5349 138.006 23.2138 136.433C23.8927 134.859 24.0572 133.112 23.6838 131.439C19.0034 110.978 32.6845 101.437 50.296 107.167C55.5464 108.937 56.1465 105.997 56.2965 104.857C58.6367 81.7552 85.819 76.2047 97.52 86.8556C98.1936 87.4906 99.0844 87.8443 100.01 87.8443C100.936 87.8443 101.827 87.4906 102.5 86.8556C121.192 69.0341 152.485 75.7547 163.886 95.8564C169.256 105.577 178.587 90.7859 193.888 98.4966C208.199 105.787 202.079 119.258 210.269 119.828C224.191 120.488 232.891 132.909 228.271 147.611C228.009 148.386 228.042 149.23 228.363 149.983C228.684 150.735 229.271 151.343 230.011 151.691C245.492 160.452 240.542 179.743 225.331 182.684C224.161 165.732 222.991 157.842 215.4 152.681C206.639 146.831 185.397 144.22 170.396 139.54C153.145 134.26 137.393 121.118 107.841 120.248C55.5164 119.078 39.4351 219.617 97.91 219.617C120.112 219.617 125.092 219.347 134.153 222.617C143.214 225.887 150.504 233.118 163.376 230.778C176.247 228.438 198.028 262.04 218.64 235.998C221.575 244.195 223.44 252.736 224.191 261.41C214.86 267.861 216.6 289.193 201.689 293.273C176.277 300.294 166.046 302.934 151.705 306.714C89.7493 311.125 53.5063 270.771 49.1259 253.04ZM185.607 179.383C173.606 184.064 168.386 206.866 177.147 215.026C185.037 222.647 205.199 224.387 216.15 226.727C211.47 239.598 202.709 239.868 195.388 237.828C185.157 234.828 179.907 225.257 167.336 224.687C177.837 213.286 168.506 199.245 161.785 194.865C157.675 192.224 153.895 196.905 157.105 200.115C171.596 214.636 160.795 226.547 148.914 222.917C143.934 221.477 140.154 218.267 136.343 216.917C119.692 209.896 96.5899 219.257 82.8487 210.496C63.1971 197.655 64.0071 161.862 80.2085 140.92C95.7198 121.028 118.822 123.669 150.384 138.58C181.077 153.191 209.999 149.111 214.98 163.422C206.489 160.422 190.978 160.242 189.238 166.422C189.09 167.056 189.112 167.718 189.3 168.341C189.488 168.964 189.836 169.527 190.31 169.973C190.783 170.42 191.366 170.734 191.999 170.885C192.632 171.036 193.294 171.018 193.918 170.833C197.779 169.523 201.864 169.003 205.931 169.302C209.997 169.601 213.962 170.713 217.59 172.573C217.89 175.213 218.19 178.573 218.49 182.504C207.239 178.033 193.228 176.353 185.607 179.293V179.383ZM210.75 187.274C206.257 196.432 202.446 205.908 199.349 215.626C187.078 212.986 176.847 211.516 180.657 196.905C184.437 181.634 195.268 183.674 210.75 187.184V187.274ZM241.172 413.223C181.167 440.225 132.713 456.187 96.1699 436.595C72.7979 397.592 103.791 327.566 153.775 314.125C168.776 310.044 178.617 307.704 204.329 300.384C227.431 293.963 220.71 258.59 243.332 261.38C238.652 278.602 236.792 288.053 240.122 291.773C252.123 305.214 307.628 252.59 323.709 298.493C318.729 302.874 306.788 307.674 300.607 309.594C296.557 310.854 296.227 316.015 304.417 315.145C312.278 314.044 319.728 310.944 326.049 306.144C327.762 313.717 328.449 321.487 328.089 329.246C311.918 341.817 303.457 338.937 304.987 343.557C306.518 348.178 318.459 344.727 327.219 338.877C327.969 371.61 286.176 392.941 241.172 413.133V413.223Z" fill="#001434"/>
</svg>
